<svg width="31" height="31" viewBox="0 0 31 31" fill="none" xmlns="http://www.w3.org/2000/svg">
<path d="M15.5 0C6.9536 0 0 6.9536 0 15.5C0 24.0464 6.9536 31 15.5 31C24.0464 31 31 24.0464 31 15.5C31 6.9536 24.0464 0 15.5 0ZM2.50569 17.4034C3.65255 17.7423 5.11735 18.0739 6.96828 18.3362C7.32924 21.9583 8.37117 25.1062 9.85801 27.3579C5.97986 25.506 3.14785 21.8051 2.50569 17.4034ZM21.7957 16.202C20.3215 16.3541 18.6227 16.4622 16.6825 16.4937V2.6253C19.332 3.77322 21.8051 8.65763 21.8051 15.5C21.8051 15.7361 21.802 15.9701 21.7957 16.202ZM9.19486 15.5C9.19486 8.65763 11.667 3.77322 14.3175 2.6253V16.4937C12.3637 16.4632 10.667 16.3604 9.20431 16.2156C9.19801 15.9795 9.19486 15.7413 9.19486 15.5ZM14.3175 18.8609V28.3747C12.0898 27.4094 9.99022 23.803 9.37639 18.6143C10.8307 18.7454 12.4707 18.8346 14.3175 18.8609ZM16.6825 18.8588C18.4936 18.8294 20.1389 18.7349 21.6257 18.5922C21.015 23.7925 18.9123 27.4083 16.6825 28.3736V18.8588ZM9.85801 3.64206C7.99448 6.46358 6.82873 10.6943 6.82873 15.5C6.82873 15.6396 6.82978 15.7781 6.83188 15.9176C5.43109 15.7004 4.33249 15.4517 3.49831 15.2198C3.07859 15.1034 2.70715 14.9859 2.38082 14.8725C2.61586 9.91572 5.61051 5.67137 9.85801 3.64206ZM21.142 27.3579C22.633 25.0999 23.6771 21.9405 24.0349 18.3047C25.804 18.0466 27.2855 17.7224 28.4975 17.3793C27.8626 21.7915 25.0275 25.5018 21.142 27.3579ZM27.508 15.1947C26.656 15.4265 25.5511 15.6763 24.1681 15.8945C24.1702 15.7634 24.1713 15.6322 24.1713 15.5C24.1713 10.6932 23.0066 6.46358 21.142 3.64206C25.3863 5.67032 28.3789 9.90942 28.6181 14.861C28.2876 14.9701 27.9204 15.0824 27.508 15.1947Z" fill="#5A2223"/>
</svg>
