<svg width="20" height="20" viewBox="0 0 20 20" fill="none" xmlns="http://www.w3.org/2000/svg">
<path fill-rule="evenodd" clip-rule="evenodd" d="M11.3614 1.84225C7.59987 1.84225 4.57522 4.84052 4.57522 8.50889C4.57522 12.1772 7.59987 15.1755 11.3614 15.1755C15.1229 15.1755 18.1476 12.1772 18.1476 8.50889C18.1476 4.84052 15.1229 1.84225 11.3614 1.84225ZM2.73297 8.50889C2.73297 3.79604 6.60968 0 11.3614 0C16.1131 0 19.9898 3.79604 19.9898 8.50889C19.9898 13.2217 16.1131 17.0178 11.3614 17.0178C9.38757 17.0178 7.56473 16.3628 6.10802 15.2591L1.29245 20L0 18.6872L4.76571 13.9954C3.49832 12.5159 2.73297 10.6029 2.73297 8.50889Z" fill="#2A2A2A"/>
</svg>
